<svg width="310" height="90" viewBox="0 0 310 90" fill="none" xmlns="http://www.w3.org/2000/svg">
<path d="M117.44 32.04C119.8 32.04 121.86 32.52 123.62 33.48C125.42 34.44 126.8 35.7 127.76 37.26V32.52H138.02V65.94C138.02 69.02 137.4 71.8 136.16 74.28C134.96 76.8 133.1 78.8 130.58 80.28C128.1 81.76 125 82.5 121.28 82.5C116.32 82.5 112.3 81.32 109.22 78.96C106.14 76.64 104.38 73.48 103.94 69.48H114.08C114.4 70.76 115.16 71.76 116.36 72.48C117.56 73.24 119.04 73.62 120.8 73.62C122.92 73.62 124.6 73 125.84 71.76C127.12 70.56 127.76 68.62 127.76 65.94V61.2C126.76 62.76 125.38 64.04 123.62 65.04C121.86 66 119.8 66.48 117.44 66.48C114.68 66.48 112.18 65.78 109.94 64.38C107.7 62.94 105.92 60.92 104.6 58.32C103.32 55.68 102.68 52.64 102.68 49.2C102.68 45.76 103.32 42.74 104.6 40.14C105.92 37.54 107.7 35.54 109.94 34.14C112.18 32.74 114.68 32.04 117.44 32.04ZM127.76 49.26C127.76 46.7 127.04 44.68 125.6 43.2C124.2 41.72 122.48 40.98 120.44 40.98C118.4 40.98 116.66 41.72 115.22 43.2C113.82 44.64 113.12 46.64 113.12 49.2C113.12 51.76 113.82 53.8 115.22 55.32C116.66 56.8 118.4 57.54 120.44 57.54C122.48 57.54 124.2 56.8 125.6 55.32C127.04 53.84 127.76 51.82 127.76 49.26ZM143.403 49.2C143.403 45.76 144.043 42.74 145.323 40.14C146.643 37.54 148.423 35.54 150.663 34.14C152.903 32.74 155.403 32.04 158.163 32.04C160.523 32.04 162.583 32.52 164.343 33.48C166.143 34.44 167.523 35.7 168.483 37.26V32.52H178.743V66H168.483V61.26C167.483 62.82 166.083 64.08 164.283 65.04C162.523 66 160.463 66.48 158.103 66.48C155.383 66.48 152.903 65.78 150.663 64.38C148.423 62.94 146.643 60.92 145.323 58.32C144.043 55.68 143.403 52.64 143.403 49.2ZM168.483 49.26C168.483 46.7 167.763 44.68 166.323 43.2C164.923 41.72 163.203 40.98 161.163 40.98C159.123 40.98 157.383 41.72 155.943 43.2C154.543 44.64 153.843 46.64 153.843 49.2C153.843 51.76 154.543 53.8 155.943 55.32C157.383 56.8 159.123 57.54 161.163 57.54C163.203 57.54 164.923 56.8 166.323 55.32C167.763 53.84 168.483 51.82 168.483 49.26ZM204.825 57.3V66H199.605C195.885 66 192.985 65.1 190.905 63.3C188.825 61.46 187.785 58.48 187.785 54.36V41.04H183.705V32.52H187.785V24.36H198.045V32.52H204.765V41.04H198.045V54.48C198.045 55.48 198.285 56.2 198.765 56.64C199.245 57.08 200.045 57.3 201.165 57.3H204.825ZM231.12 32.16C234.96 32.16 238.04 33.44 240.36 36C242.68 38.52 243.84 42 243.84 46.44V66H233.64V47.82C233.64 45.58 233.06 43.84 231.9 42.6C230.74 41.36 229.18 40.74 227.22 40.74C225.26 40.74 223.7 41.36 222.54 42.6C221.38 43.84 220.8 45.58 220.8 47.82V66H210.54V21.6H220.8V37.02C221.84 35.54 223.26 34.36 225.06 33.48C226.86 32.6 228.88 32.16 231.12 32.16ZM282.53 48.72C282.53 49.68 282.47 50.68 282.35 51.72H259.13C259.29 53.8 259.95 55.4 261.11 56.52C262.31 57.6 263.77 58.14 265.49 58.14C268.05 58.14 269.83 57.06 270.83 54.9H281.75C281.19 57.1 280.17 59.08 278.69 60.84C277.25 62.6 275.43 63.98 273.23 64.98C271.03 65.98 268.57 66.48 265.85 66.48C262.57 66.48 259.65 65.78 257.09 64.38C254.53 62.98 252.53 60.98 251.09 58.38C249.65 55.78 248.93 52.74 248.93 49.26C248.93 45.78 249.63 42.74 251.03 40.14C252.47 37.54 254.47 35.54 257.03 34.14C259.59 32.74 262.53 32.04 265.85 32.04C269.09 32.04 271.97 32.72 274.49 34.08C277.01 35.44 278.97 37.38 280.37 39.9C281.81 42.42 282.53 45.36 282.53 48.72ZM272.03 46.02C272.03 44.26 271.43 42.86 270.23 41.82C269.03 40.78 267.53 40.26 265.73 40.26C264.01 40.26 262.55 40.76 261.35 41.76C260.19 42.76 259.47 44.18 259.19 46.02H272.03ZM298.203 38.1C299.403 36.26 300.903 34.82 302.703 33.78C304.503 32.7 306.503 32.16 308.703 32.16V43.02H305.883C303.323 43.02 301.403 43.58 300.123 44.7C298.843 45.78 298.203 47.7 298.203 50.46V66H287.943V32.52H298.203V38.1Z" fill="black"/>
<path d="M61.68 23.88L50.7 66H38.28L31.56 38.28L24.6 66H12.18L1.5 23.88H12.48L18.54 54.54L26.04 23.88H37.32L44.52 54.54L50.64 23.88H61.68ZM98.3855 48.72C98.3855 49.68 98.3255 50.68 98.2055 51.72H74.9855C75.1455 53.8 75.8055 55.4 76.9655 56.52C78.1655 57.6 79.6255 58.14 81.3455 58.14C83.9055 58.14 85.6855 57.06 86.6855 54.9H97.6055C97.0455 57.1 96.0255 59.08 94.5455 60.84C93.1055 62.6 91.2855 63.98 89.0855 64.98C86.8855 65.98 84.4255 66.48 81.7055 66.48C78.4255 66.48 75.5055 65.78 72.9455 64.38C70.3855 62.98 68.3855 60.98 66.9455 58.38C65.5055 55.78 64.7855 52.74 64.7855 49.26C64.7855 45.78 65.4855 42.74 66.8855 40.14C68.3255 37.54 70.3255 35.54 72.8855 34.14C75.4455 32.74 78.3855 32.04 81.7055 32.04C84.9455 32.04 87.8255 32.72 90.3455 34.08C92.8655 35.44 94.8255 37.38 96.2255 39.9C97.6655 42.42 98.3855 45.36 98.3855 48.72ZM87.8855 46.02C87.8855 44.26 87.2855 42.86 86.0855 41.82C84.8855 40.78 83.3855 40.26 81.5855 40.26C79.8655 40.26 78.4055 40.76 77.2055 41.76C76.0455 42.76 75.3255 44.18 75.0455 46.02H87.8855Z" fill="#147B43"/>
</svg>
