<svg width="236" height="63" viewBox="0 0 236 63" fill="none" xmlns="http://www.w3.org/2000/svg">
<path d="M36.0938 32.8438L28.7578 17.2344L36.1875 1.48438L36.2344 1.39062H34.0781L27.7031 14.9844L21.3516 1.4375L21.3047 1.39062H19.1953L26.6484 17.2344L19.2891 32.8438L4.57031 1.4375L4.52344 1.39062H2.39062L18.2344 35.0469V35.0938H20.3906L27.7031 19.4844L34.9922 35.0469L35.0391 35.0938H37.1484L52.9453 1.48438L52.9922 1.39062H50.8828L36.0938 32.8438ZM68.4609 1.39062H68.3203C65.2969 1.39062 62.5078 2.16406 59.9531 3.6875C57.3984 5.21094 55.3594 7.25 53.8594 9.82812C52.3594 12.4062 51.6094 15.2188 51.6094 18.2656C51.6094 21.3125 52.3594 24.125 53.8594 26.7266C55.3594 29.3281 57.3984 31.3672 60 32.8672C62.6016 34.3672 65.4141 35.1172 68.4609 35.1172C71.5078 35.1172 74.3203 34.3672 76.9219 32.8672C79.5234 31.3672 81.5625 29.3281 83.0625 26.7266C84.5625 24.125 85.3125 21.3125 85.3125 18.2656C85.3125 15.2422 84.5625 12.4297 83.0625 9.85156C81.5625 7.27344 79.5234 5.23438 76.9453 3.71094C74.3672 2.1875 71.5547 1.4375 68.5078 1.4375L68.4609 1.39062ZM68.4375 3.35938C72.5391 3.35938 76.0547 4.8125 78.9609 7.71875C81.8672 10.625 83.3203 14.1406 83.3203 18.2422C83.3203 22.3438 81.8672 25.8594 78.9609 28.7656C76.0547 31.6719 72.5391 33.125 68.4375 33.125C64.3359 33.125 60.8203 31.6719 57.9141 28.7656C55.0078 25.8594 53.5547 22.3438 53.5547 18.2422C53.5547 14.1406 55.0078 10.625 57.9141 7.71875C60.8203 4.8125 64.3359 3.35938 68.4375 3.35938ZM121.969 1.39062L107.344 24.3828L92.6953 1.39062H90.0469V35.0938H91.9688V3.85156L107.344 27.9453L122.695 3.85156V35.0938H124.617V1.39062H121.969ZM129.422 1.39062V35.0938H131.344H163.125V33.125H131.344V19.2031H146.32V17.2812H131.344V3.3125H163.125V1.39062H129.422ZM200.18 33.2656L170.602 1.4375V1.39062H167.906V35.0938H169.828V3.40625L199.219 35.0469V35.0938H202.102V1.39062H200.18V33.2656Z" fill="#E4F5FF"/>
<path d="M64.696 51.768C64.696 52.0133 64.6213 52.2373 64.472 52.44C64.184 52.5573 63.944 52.616 63.752 52.616C63.7093 52.616 63.6507 52.6053 63.576 52.584C63.5013 52.5627 63.4533 52.552 63.432 52.552L63.016 52.76L62.632 52.728L62.408 52.808L62.296 52.776L62.008 52.936L61.768 52.856C61.48 52.856 61.2507 52.8613 61.08 52.872L61.144 52.856L60.856 52.952H60.808L60.696 53.048L60.472 52.984L60.344 53.096L59.992 52.952L59.784 53.08C59.528 53.0053 59.3787 52.968 59.336 52.968C59.2187 52.968 59.0747 53.0053 58.904 53.08L58.184 53.144L58.12 53.112L57.848 53.16L57.832 53.224L57.992 54.024L57.928 54.104L57.992 54.264L57.976 54.472C58.0293 54.632 58.0667 54.792 58.088 54.952L58.28 55.144L58.248 55.24L58.568 55.64C58.8987 55.8747 59.1493 55.992 59.32 55.992H59.352C59.3733 55.992 59.4 55.9867 59.432 55.976C59.464 55.976 59.4853 55.976 59.496 55.976C59.5387 55.976 59.5973 55.992 59.672 56.024L59.816 56.008C59.9547 55.976 60.152 55.9387 60.408 55.896L60.584 55.8L60.616 55.736L60.728 55.72L60.856 55.64L60.936 55.688L61.192 55.608L61.4 55.48L61.48 55.368L61.752 55.16L61.96 55.128L62.344 54.84C62.6107 54.7973 62.8027 54.584 62.92 54.2L62.968 54.216L62.984 54.168L63.192 54.152L63.496 53.896L63.608 53.88C63.64 53.8693 63.6773 53.864 63.72 53.864C63.9227 53.864 64.0453 54.0613 64.088 54.456L63.384 55.288L63.208 55.336L63.144 55.432L62.84 55.752L62.408 56.008L62.056 56.344L61.944 56.328L61.816 56.456L61.096 56.728L60.808 57.048L60.6 56.968L60.52 57.112L60.376 57.064L60.296 57.144L59.768 57.048L59.224 57.272L58.68 57.096L57.992 56.776C57.4053 56.4987 56.952 55.7307 56.632 54.472L56.648 54.296L56.504 53.928L56.648 53.768L56.552 53.32L56.536 53.176L56.264 52.872V52.68C56.264 52.3707 56.3493 52.1573 56.52 52.04C56.552 51.9547 56.6107 51.8747 56.696 51.8L56.664 51.752V51.304L56.616 51.08L56.824 50.568L56.872 50.312L56.712 50.328H56.648C56.4987 50.328 56.3707 50.28 56.264 50.184C56.1573 50.0773 56.104 49.9547 56.104 49.816C56.104 49.656 56.2053 49.4747 56.408 49.272L56.52 49.16L56.664 49.096C56.8347 49.0213 56.968 48.984 57.064 48.984H57.144C57.1653 48.9733 57.2187 48.968 57.304 48.968H57.368L57.528 48.712L58.248 48.76L58.296 48.808C58.392 48.7867 58.536 48.776 58.728 48.776L59.048 48.696H59.128C59.2667 48.6533 59.4 48.568 59.528 48.44L59.768 48.568H59.848C59.9013 48.568 59.96 48.5733 60.024 48.584C60.0987 48.5947 60.1467 48.6 60.168 48.6L61.768 48.456L61.928 48.52L62.152 48.472L62.28 48.344L62.6 48.52L62.712 48.44L63.064 48.584L63.304 48.52L63.432 48.6L63.944 48.552L64.056 48.632L64.312 48.68C64.5573 48.7227 64.68 48.84 64.68 49.032C64.68 49.16 64.632 49.272 64.536 49.368C64.4507 49.464 64.36 49.512 64.264 49.512H64.2L64.024 49.608L63.704 49.512L63.56 49.528C63.528 49.5387 63.4853 49.544 63.432 49.544C63.3253 49.544 63.2293 49.5227 63.144 49.48L63.096 49.416C62.9893 49.4373 62.92 49.448 62.888 49.448C62.8453 49.448 62.792 49.4373 62.728 49.416C62.6213 49.4907 62.424 49.5547 62.136 49.608C61.9867 49.608 61.8213 49.6027 61.64 49.592C61.64 49.5813 61.6613 49.544 61.704 49.48L61.288 49.592C61.2773 49.5813 61.2667 49.576 61.256 49.576C61.1813 49.576 61.0427 49.6613 60.84 49.832L60.632 49.736L60.536 49.8L60.152 49.688L59.928 49.8H59.608L59.128 49.896L58.728 50.072L58.616 50.008L58.408 50.152H58.2L58.152 50.232L58.2 50.424L57.928 50.744L58.056 50.76V51.208L58.232 51.4L58.088 51.528C57.9813 51.7093 57.928 51.832 57.928 51.896C57.928 51.9387 57.96 51.9707 58.024 51.992L58.216 51.928C58.2693 51.9173 58.3227 51.912 58.376 51.912C58.536 51.9333 58.6533 51.9547 58.728 51.976L59.016 51.864L59.272 51.944L59.416 51.912L59.592 51.928L59.848 51.88C59.9333 51.9013 60.0027 51.912 60.056 51.912C60.0987 51.912 60.184 51.8747 60.312 51.8C60.3973 51.8427 60.52 51.864 60.68 51.864C60.7013 51.864 60.7387 51.8587 60.792 51.848C60.8453 51.848 60.888 51.848 60.92 51.848H60.952C60.9307 51.848 60.9093 51.8427 60.888 51.832H60.936C61 51.832 61.192 51.848 61.512 51.88C61.544 51.8693 61.7093 51.8587 62.008 51.848C62.1787 51.8373 62.2853 51.832 62.328 51.832C62.488 51.832 62.6427 51.8373 62.792 51.848L62.936 51.832C63.0853 51.7467 63.224 51.704 63.352 51.704C63.448 51.704 63.544 51.72 63.64 51.752L63.864 51.704L64.056 51.784L64.696 51.624V51.768ZM70.0895 55.256C70.0895 55.3733 70.0468 55.4693 69.9615 55.544C69.8762 55.672 69.7375 55.8053 69.5455 55.944L69.3855 56.056L69.2415 56.248L69.0975 56.312L68.8735 56.456L68.7135 56.472L68.6495 56.536C68.4362 56.6 68.2708 56.7067 68.1535 56.856C68.0788 56.9093 68.0095 56.936 67.9455 56.936C67.9028 56.936 67.8655 56.9307 67.8335 56.92C67.6522 57.0267 67.4175 57.08 67.1295 57.08C66.8842 57.08 66.7242 57.0587 66.6495 57.016L66.3615 56.856L66.2655 56.696V56.648C66.2655 56.5093 66.2068 56.3973 66.0895 56.312L66.0255 55.992L65.8975 55.848L65.8175 55.256L65.8015 54.904L65.8175 54.648L65.8495 54.552C65.8175 54.488 65.8015 54.4187 65.8015 54.344C65.8548 53.896 65.8815 53.6133 65.8815 53.496L65.7375 53.208L65.8815 52.968L65.9295 52.568L65.8975 52.296L65.9935 52.056L65.8975 51.736L66.0415 51.512L66.0575 51.368V50.808L66.1055 50.696L66.0895 50.024L66.1375 49.336L66.0735 49.208L66.0575 48.728L66.1055 48.296L66.0575 48.136L66.1535 47.176C66.6015 47.0693 66.7988 47.016 66.7455 47.016C66.9162 47.016 67.0548 47.1067 67.1615 47.288L67.1935 47.416L67.4335 47.656L67.3055 47.992L67.3375 48.056C67.3162 48.2587 67.2895 48.392 67.2575 48.456L67.2895 48.792L67.3695 49.096L67.2575 49.432C67.2575 49.6133 67.2308 49.7787 67.1775 49.928C67.1775 49.9813 67.1668 50.0667 67.1455 50.184L67.1295 50.28L67.2735 50.456L67.2095 50.632C67.2308 50.7173 67.2415 50.776 67.2415 50.808C67.2415 50.872 67.2202 50.9573 67.1775 51.064L67.2095 51.208L67.1135 51.72V52.056L67.0015 52.392L67.0655 52.696L67.0015 53.4L67.0495 53.48L66.9695 53.848L66.9375 54.296C66.9162 54.36 66.9055 54.3973 66.9055 54.408C66.9055 54.5893 66.9002 54.7387 66.8895 54.856L66.9695 55.08L66.9375 55.32L67.0335 55.528L67.0175 55.608C67.0815 55.6613 67.1402 55.7467 67.1935 55.864H67.3375L67.5455 55.928L67.6415 55.8L67.7855 55.784C67.8495 55.7627 67.8975 55.752 67.9295 55.752H67.9775C68.0842 55.7307 68.1695 55.6773 68.2335 55.592L68.3295 55.544C68.4042 55.4267 68.5268 55.3467 68.6975 55.304C68.7508 55.2613 68.8522 55.176 69.0015 55.048C69.0015 54.8987 69.0922 54.7867 69.2735 54.712C69.4335 54.712 69.5402 54.6853 69.5935 54.632C69.8068 54.664 69.9402 54.7227 69.9935 54.808C70.0575 54.8827 70.0895 55.032 70.0895 55.256ZM75.9159 55.688C75.9159 55.816 75.8199 55.976 75.6279 56.168C75.5745 56.3387 75.4945 56.4773 75.3879 56.584L75.2919 56.6L75.1159 56.904L74.8279 56.952L74.5239 57.144L74.3639 57.432L74.1879 57.4C74.0705 57.4533 73.9745 57.4853 73.8999 57.496L73.8039 57.64C73.7719 57.6293 73.7239 57.624 73.6599 57.624C73.5212 57.624 73.3879 57.72 73.2599 57.912L73.0359 57.72C72.9932 57.7307 72.9292 57.736 72.8439 57.736C72.7052 57.736 72.5879 57.7147 72.4919 57.672H72.2199L72.0919 57.592C71.6865 57.528 71.4305 57.3733 71.3239 57.128V57.08L71.1319 56.984L71.0359 56.712L70.8439 56.584V56.344L70.6519 55.64L70.6839 55.064L70.7479 54.808V54.472L70.8279 54.216L70.8119 54.104L70.9239 53.912L70.8919 53.944C70.8919 53.848 70.9185 53.7467 70.9719 53.64V53.56L70.9239 53.176C70.9239 52.9947 71.0039 52.8347 71.1639 52.696C71.1745 52.6747 71.1799 52.6427 71.1799 52.6C71.1799 52.5573 71.1585 52.472 71.1159 52.344C71.0839 52.2053 71.0679 52.1093 71.0679 52.056C71.0679 51.928 71.0999 51.7947 71.1639 51.656C71.2492 51.784 71.3719 51.848 71.5319 51.848H71.5799C71.6012 51.8053 71.6492 51.7573 71.7239 51.704C71.8092 51.4373 71.9265 51.2133 72.0759 51.032L72.1399 50.968C72.1399 50.9253 72.1719 50.8027 72.2359 50.6H72.3639L72.3959 50.52L72.5239 50.488C72.5772 50.4027 72.6092 50.3547 72.6199 50.344C72.6412 50.3227 72.7585 50.2533 72.9719 50.136C73.0145 50.0613 73.0785 49.992 73.1639 49.928C73.2065 49.9067 73.2599 49.8853 73.3239 49.864L73.3879 49.768C73.6759 49.672 73.8572 49.624 73.9319 49.624C74.0172 49.624 74.0972 49.6453 74.1719 49.688L74.2519 49.672L74.3639 49.736C74.4919 49.832 74.6199 49.912 74.7479 49.976L75.0199 50.184V50.248C75.2652 50.44 75.3879 50.712 75.3879 51.064L75.3399 51.224L75.3879 51.752L75.2439 51.848L75.0839 52.264L74.7799 52.6L74.7639 52.856C74.4225 53.1013 74.1079 53.2987 73.8199 53.448C73.7239 53.5973 73.5745 53.672 73.3719 53.672H73.3239L73.0199 53.864H72.7639L72.3799 54.024L72.0919 53.88H72.0599C72.0385 53.9653 72.0172 54.0933 71.9959 54.264L71.8679 54.36L71.8519 54.552L71.7559 54.824C71.7879 55.08 71.8039 55.2453 71.8039 55.32L71.7399 55.368C71.7399 55.5067 71.7345 55.608 71.7239 55.672C71.7239 55.6827 71.7185 55.6987 71.7079 55.72C71.7079 55.7413 71.7079 55.7573 71.7079 55.768C71.7079 55.8533 71.7505 55.9227 71.8359 55.976C71.8679 56.104 71.9212 56.184 71.9959 56.216L72.1079 56.312L72.4599 56.408V56.456L72.5879 56.488L73.1319 56.52L73.4519 56.472L73.6119 56.36L73.7079 56.328L73.8679 56.088L73.9479 56.072L74.3479 55.944C74.3905 55.8693 74.4599 55.8053 74.5559 55.752L74.6039 55.672C74.8172 55.6293 74.9399 55.5173 74.9719 55.336C75.1212 55.1867 75.3132 55.112 75.5479 55.112H75.6119C75.8145 55.3467 75.9159 55.5387 75.9159 55.688ZM74.3319 51.08C74.3319 51.048 74.3159 50.984 74.2839 50.888L74.2039 50.872L74.1719 50.888C74.1612 50.888 74.1399 50.888 74.1079 50.888C74.0865 50.8987 74.0652 50.904 74.0439 50.904C74.0332 50.904 74.0172 50.8987 73.9959 50.888C73.9745 50.888 73.9585 50.888 73.9479 50.888L73.7879 51L73.6439 51.016L73.5639 51.048L73.2919 51.4L73.1159 51.528L72.8599 51.976L72.7159 52.072C72.6839 52.2533 72.6092 52.408 72.4919 52.536L72.4279 52.648C72.5452 52.5733 72.6785 52.536 72.8279 52.536L72.9399 52.488L72.9879 52.344L73.2119 52.36L73.3399 52.168H73.4359L73.6119 52.232L73.6919 51.992H73.8039V51.816L74.0119 51.768L74.0599 51.72L74.0919 51.576L74.2999 51.272C74.3212 51.2187 74.3319 51.1547 74.3319 51.08ZM84.4111 49.576L84.2511 49.848L84.2991 50.152L84.0591 50.296L83.9951 50.632L83.8511 50.744L83.8031 51.096H83.7551C83.7231 51.2453 83.6325 51.3627 83.4831 51.448L83.3391 51.96L83.1951 52.184C83.2058 52.248 83.2111 52.3173 83.2111 52.392L82.9551 52.616L82.5871 53.464L82.2831 53.96V54.12C82.2831 54.2693 82.1978 54.3973 82.0271 54.504L81.9951 54.792L81.8831 54.856L81.6911 55.112L81.6431 55.288L81.5311 55.368C81.5311 55.4 81.5418 55.4693 81.5631 55.576L81.3871 55.72L81.0991 55.896L81.0031 56.056L80.6831 56.392C80.3525 56.968 80.0058 57.256 79.6431 57.256C79.3551 57.256 79.0938 57.1067 78.8591 56.808L78.9071 56.92L78.3471 56.104L78.3151 55.912L78.2191 55.848L78.2031 55.464L78.0271 55.288V54.888L77.6111 53.96L77.6431 53.8L77.5151 53.576L77.4831 53.4L77.4031 53.288L77.2911 53L77.0031 52.776L76.8751 52.248L76.6511 52.056L76.5231 51.848C76.2565 51.7627 76.1231 51.544 76.1231 51.192C76.1231 50.8933 76.3525 50.6533 76.8111 50.472C77.3978 50.8667 77.7445 51.2613 77.8511 51.656L77.8991 52.024C77.9418 52.0027 78.0165 51.9813 78.1231 51.96V52.104L78.3791 52.296L78.2831 52.552L78.3151 52.744L78.4591 53.128L78.5391 53.208L78.5551 53.352L78.6831 53.416V53.688L78.8591 54.312L78.8911 54.552L79.1471 55.064L79.3551 55.688L79.5151 55.848H79.5471C79.5898 55.848 79.6271 55.8053 79.6591 55.72L79.7871 55.672L79.7391 55.544C79.7711 55.48 79.8085 55.448 79.8511 55.448C79.8938 55.448 79.9365 55.464 79.9791 55.496C80.0538 55.2827 80.1071 55.176 80.1391 55.176C80.1498 55.176 80.1551 55.192 80.1551 55.224C80.1978 55.096 80.2991 54.9893 80.4591 54.904L80.6671 54.6L80.7951 54.28L80.9551 54.152L81.0511 53.944L81.1151 53.896L81.0831 53.688L81.2591 53.608L81.2911 53.528C81.2911 53.4853 81.3178 53.4267 81.3711 53.352L81.4831 53.064L81.5631 53.16L81.6271 53.128V53.08C81.6271 52.9413 81.6858 52.824 81.8031 52.728V52.696L81.9151 52.488L81.9951 52.136L82.1071 52.104L82.3151 51.608L82.4591 51.416C82.4911 51.256 82.5658 51.1333 82.6831 51.048L82.8271 50.6L82.9391 50.456V50.12H83.0191C83.1471 50.0347 83.2538 49.9067 83.3391 49.736C83.4245 49.5547 83.4885 49.448 83.5311 49.416L83.6111 49.368L84.0591 49.096L84.4111 49.576ZM91.1814 50.52L91.0214 50.728L91.1494 51.112L90.9414 51.352L90.8614 51.688L90.8134 51.768L90.8454 51.848C90.8454 51.9973 90.808 52.1093 90.7334 52.184L90.7014 52.232V52.296C90.7334 52.3707 90.7494 52.44 90.7494 52.504C90.7494 52.5573 90.744 52.5947 90.7334 52.616L90.7494 52.68L90.6854 52.856L90.7334 53.048L90.6054 53.176L90.6534 53.4L90.7494 53.512L90.6054 53.64V53.896L90.4934 54.152L90.5734 54.408L90.4774 54.536L90.6374 54.648L90.4134 55.016L90.3974 55.064L90.5574 55.096L90.4454 55.464V55.528C90.4454 55.6027 90.44 55.6613 90.4294 55.704L90.4454 55.752L90.7014 55.784L90.9094 56.104L90.7974 56.344L90.9734 56.328C91.0374 56.456 91.0747 56.568 91.0854 56.664L90.8454 56.904C90.7707 56.9787 90.664 57.0533 90.5254 57.128L90.2534 57.272L90.1734 57.192L90.0134 57.288L89.5174 56.712V56.44C89.4534 56.2267 89.4214 56.0293 89.4214 55.848V55.752L89.3254 54.808L89.4534 54.136L89.3574 53.752L89.0854 54.2L88.9414 54.616L88.8134 54.68L88.5894 55.032L88.1894 55.4L88.0774 55.592L87.7254 55.896L87.6454 56.104L87.1334 56.424L86.5894 57.032L86.2854 57.096L86.0774 57.256C85.8107 57.2453 85.608 57.144 85.4694 56.952C84.9894 56.7173 84.7387 56.3813 84.7174 55.944L84.7974 55.896L84.7814 55.8L84.7654 55.608L84.6694 55.4L84.7654 55.176L84.7974 54.84L84.9094 54.312C84.9094 54.3013 84.9094 54.28 84.9094 54.248C84.8987 54.2267 84.8934 54.2053 84.8934 54.184C84.8934 54.1413 84.904 54.088 84.9254 54.024C84.9147 54.0027 84.9094 53.96 84.9094 53.896C84.9094 53.8213 84.9414 53.6987 85.0054 53.528L85.1174 53.48C85.0534 53.4267 85.0214 53.368 85.0214 53.304C85.0214 53.2613 85.0267 53.2293 85.0374 53.208C85.0267 53.176 85.0214 53.1387 85.0214 53.096C85.0214 52.968 85.0854 52.872 85.2134 52.808C85.2454 52.7013 85.304 52.5947 85.3894 52.488L85.3094 52.36L85.5014 52.12V52.056C85.5014 51.8533 85.5707 51.6667 85.7094 51.496L85.6934 51.208L85.7574 51.144C85.7574 51.1333 85.7574 51.1173 85.7574 51.096C85.7467 51.0747 85.7414 51.0587 85.7414 51.048C85.7414 50.984 85.7627 50.9307 85.8054 50.888V50.792C85.848 50.6853 85.96 50.5253 86.1414 50.312C86.3227 50.0987 86.456 49.912 86.5414 49.752L86.6214 49.832L86.7974 49.752L86.8774 49.72L87.4054 49.48L88.6374 49.544V49.656L89.0214 49.736C89.2667 49.736 89.4267 49.816 89.5014 49.976C89.5014 49.944 89.5067 49.9067 89.5174 49.864C89.5174 49.832 89.5174 49.8107 89.5174 49.8L89.8534 50.104L90.1574 50.168L90.7334 50.024L90.9414 50.424L91.1814 50.52ZM89.6614 51.352L89.5974 51.24L89.4694 51.208L88.9734 50.808L88.6534 50.76H88.3974L88.3654 50.728L88.2374 50.776L88.0934 50.696H87.6774L87.7254 50.76L87.3574 50.888L87.2934 50.968L87.2454 50.984C87.0534 51.144 86.92 51.2773 86.8454 51.384L86.7334 51.768L86.6694 51.912L86.8294 52.136L86.5574 52.344L86.5894 52.408C86.472 52.6107 86.4134 52.808 86.4134 53L86.2854 53.16V53.448L86.1574 53.592L86.1254 53.736L86.0774 53.768V53.992L86.0294 54.072C86.0294 54.2 86.0187 54.3013 85.9974 54.376L86.0294 54.456L85.8854 54.76L85.9494 54.856L85.8374 55.016L85.9494 55.32L85.7734 55.544L85.8054 55.848V55.896L85.8694 55.928L85.9494 55.912C86.0027 55.8587 86.056 55.8107 86.1094 55.768L86.0774 55.64L86.3014 55.608L86.3494 55.496L87.2934 54.728L87.3894 54.696L87.5014 54.424C87.5654 54.4027 87.656 54.36 87.7734 54.296L87.8694 54.04H87.9974L87.9494 53.768L88.1734 53.736C88.1947 53.6933 88.2267 53.64 88.2694 53.576C88.3227 53.512 88.376 53.4533 88.4294 53.4L89.2454 52.312L89.3734 52.072L89.3574 52.008L89.4694 51.832L89.5014 51.656L89.6454 51.528L89.6614 51.352ZM97.9918 51.256C97.9918 51.352 97.8958 51.4427 97.7038 51.528C97.6611 51.5813 97.5811 51.6293 97.4638 51.672C97.3144 51.736 97.2078 51.7893 97.1438 51.832L96.8078 51.72C96.6371 51.848 96.4184 51.912 96.1518 51.912L95.9598 51.864L95.8158 51.992H95.3838L95.1118 52.168C94.9944 52.1253 94.8824 52.104 94.7758 52.104C94.7438 52.1253 94.6691 52.1467 94.5518 52.168C94.4984 52.168 94.4398 52.152 94.3758 52.12L94.3278 52.728L94.3438 53.176L94.2958 53.736L94.3278 54.344L94.3758 54.632V54.856L94.5998 55.336C94.5678 55.368 94.5518 55.4053 94.5518 55.448C94.5518 55.5227 94.6691 55.5813 94.9038 55.624L94.9358 55.816L95.0478 55.864L95.2398 55.992L95.3678 56.088C95.4744 56.0667 95.5491 56.056 95.5918 56.056C95.6878 56.056 95.7838 56.072 95.8798 56.104C95.9224 56.0827 96.0131 56.008 96.1518 55.88C96.2478 55.7947 96.3384 55.752 96.4238 55.752C96.4344 55.752 96.4504 55.752 96.4718 55.752C96.4931 55.7627 96.5091 55.768 96.5198 55.768C96.6158 55.5653 96.7864 55.432 97.0318 55.368C97.2558 55.368 97.4424 55.4373 97.5918 55.576V55.688C97.5918 56.0507 97.4638 56.28 97.2078 56.376C97.1118 56.6 96.9091 56.744 96.5998 56.808L96.4078 56.984H96.1998L95.8318 57.08C95.7464 57.1013 95.6238 57.112 95.4638 57.112C95.3784 57.112 95.2878 57.0907 95.1918 57.048H94.9838L94.4238 56.744L94.2798 56.696L93.9438 56.248L93.7518 56.04L93.3997 55.24L93.2718 54.488L93.3038 54.296L93.1758 54.12L93.2558 53.896L93.1758 53.544L93.2878 53.432L93.3198 53.224L93.2718 53.032L93.3038 52.744L93.2398 52.488L93.3198 52.408V52.152L93.2078 52.104L92.9038 52.168L92.6158 51.96H92.5678C92.2477 51.96 92.0877 51.7893 92.0877 51.448V51.4L91.8957 51.096L92.1997 50.808L92.5998 50.872L92.8078 50.84L93.1118 50.92H93.4478V50.6L93.2398 50.152L93.4478 50.04L93.3678 49.8L93.3838 49.304L93.2558 49.096C93.1811 48.9787 93.1438 48.872 93.1438 48.776C93.1438 48.6587 93.1704 48.5627 93.2238 48.488L93.2718 48.264L93.3997 48.136C93.6878 48.0827 93.8798 48.056 93.9758 48.056C94.3171 48.056 94.5038 48.2107 94.5358 48.52L94.4878 48.6C94.5518 48.696 94.5838 48.7867 94.5838 48.872C94.5838 48.8827 94.5784 48.9093 94.5678 48.952L94.5358 49.048L94.5198 49.16L94.5838 49.368L94.5678 49.448L94.5998 49.672L94.4557 49.864L94.5358 50.184L94.4718 50.568L94.5998 50.712L94.4718 51L94.9678 50.936L95.8478 51.016L96.5518 50.904L96.7918 50.92L96.8718 50.904H97.4958C97.8264 50.904 97.9918 51.0213 97.9918 51.256ZM103.713 55.688C103.713 55.816 103.617 55.976 103.425 56.168C103.371 56.3387 103.291 56.4773 103.185 56.584L103.089 56.6L102.913 56.904L102.625 56.952L102.321 57.144L102.161 57.432L101.985 57.4C101.867 57.4533 101.771 57.4853 101.697 57.496L101.601 57.64C101.569 57.6293 101.521 57.624 101.457 57.624C101.318 57.624 101.185 57.72 101.057 57.912L100.833 57.72C100.79 57.7307 100.726 57.736 100.641 57.736C100.502 57.736 100.385 57.7147 100.289 57.672H100.017L99.8888 57.592C99.4834 57.528 99.2274 57.3733 99.1208 57.128V57.08L98.9288 56.984L98.8328 56.712L98.6408 56.584V56.344L98.4488 55.64L98.4808 55.064L98.5448 54.808V54.472L98.6248 54.216L98.6088 54.104L98.7208 53.912L98.6888 53.944C98.6888 53.848 98.7154 53.7467 98.7688 53.64V53.56L98.7208 53.176C98.7208 52.9947 98.8008 52.8347 98.9608 52.696C98.9714 52.6747 98.9768 52.6427 98.9768 52.6C98.9768 52.5573 98.9554 52.472 98.9128 52.344C98.8808 52.2053 98.8648 52.1093 98.8648 52.056C98.8648 51.928 98.8968 51.7947 98.9608 51.656C99.0461 51.784 99.1688 51.848 99.3288 51.848H99.3768C99.3981 51.8053 99.4461 51.7573 99.5208 51.704C99.6061 51.4373 99.7234 51.2133 99.8728 51.032L99.9368 50.968C99.9368 50.9253 99.9688 50.8027 100.033 50.6H100.161L100.193 50.52L100.321 50.488C100.374 50.4027 100.406 50.3547 100.417 50.344C100.438 50.3227 100.555 50.2533 100.769 50.136C100.811 50.0613 100.875 49.992 100.961 49.928C101.003 49.9067 101.057 49.8853 101.121 49.864L101.185 49.768C101.473 49.672 101.654 49.624 101.729 49.624C101.814 49.624 101.894 49.6453 101.969 49.688L102.049 49.672L102.161 49.736C102.289 49.832 102.417 49.912 102.545 49.976L102.817 50.184V50.248C103.062 50.44 103.185 50.712 103.185 51.064L103.137 51.224L103.185 51.752L103.041 51.848L102.881 52.264L102.577 52.6L102.561 52.856C102.219 53.1013 101.905 53.2987 101.617 53.448C101.521 53.5973 101.371 53.672 101.169 53.672H101.121L100.817 53.864H100.561L100.177 54.024L99.8888 53.88H99.8568C99.8354 53.9653 99.8141 54.0933 99.7928 54.264L99.6648 54.36L99.6488 54.552L99.5528 54.824C99.5848 55.08 99.6008 55.2453 99.6008 55.32L99.5368 55.368C99.5368 55.5067 99.5314 55.608 99.5208 55.672C99.5208 55.6827 99.5154 55.6987 99.5048 55.72C99.5048 55.7413 99.5048 55.7573 99.5048 55.768C99.5048 55.8533 99.5474 55.9227 99.6328 55.976C99.6648 56.104 99.7181 56.184 99.7928 56.216L99.9048 56.312L100.257 56.408V56.456L100.385 56.488L100.929 56.52L101.249 56.472L101.409 56.36L101.505 56.328L101.665 56.088L101.745 56.072L102.145 55.944C102.187 55.8693 102.257 55.8053 102.353 55.752L102.401 55.672C102.614 55.6293 102.737 55.5173 102.769 55.336C102.918 55.1867 103.11 55.112 103.345 55.112H103.409C103.611 55.3467 103.713 55.5387 103.713 55.688ZM102.129 51.08C102.129 51.048 102.113 50.984 102.081 50.888L102.001 50.872L101.969 50.888C101.958 50.888 101.937 50.888 101.905 50.888C101.883 50.8987 101.862 50.904 101.841 50.904C101.83 50.904 101.814 50.8987 101.793 50.888C101.771 50.888 101.755 50.888 101.745 50.888L101.585 51L101.441 51.016L101.361 51.048L101.089 51.4L100.913 51.528L100.657 51.976L100.513 52.072C100.481 52.2533 100.406 52.408 100.289 52.536L100.225 52.648C100.342 52.5733 100.475 52.536 100.625 52.536L100.737 52.488L100.785 52.344L101.009 52.36L101.137 52.168H101.233L101.409 52.232L101.489 51.992H101.601V51.816L101.809 51.768L101.857 51.72L101.889 51.576L102.097 51.272C102.118 51.2187 102.129 51.1547 102.129 51.08ZM113.726 51.256C113.726 51.352 113.63 51.4427 113.438 51.528C113.395 51.5813 113.315 51.6293 113.198 51.672C113.049 51.736 112.942 51.7893 112.878 51.832L112.542 51.72C112.371 51.848 112.153 51.912 111.886 51.912L111.694 51.864L111.55 51.992H111.118L110.846 52.168C110.729 52.1253 110.617 52.104 110.51 52.104C110.478 52.1253 110.403 52.1467 110.286 52.168C110.233 52.168 110.174 52.152 110.11 52.12L110.062 52.728L110.078 53.176L110.03 53.736L110.062 54.344L110.11 54.632V54.856L110.334 55.336C110.302 55.368 110.286 55.4053 110.286 55.448C110.286 55.5227 110.403 55.5813 110.638 55.624L110.67 55.816L110.782 55.864L110.974 55.992L111.102 56.088C111.209 56.0667 111.283 56.056 111.326 56.056C111.422 56.056 111.518 56.072 111.614 56.104C111.657 56.0827 111.747 56.008 111.886 55.88C111.982 55.7947 112.073 55.752 112.158 55.752C112.169 55.752 112.185 55.752 112.206 55.752C112.227 55.7627 112.243 55.768 112.254 55.768C112.35 55.5653 112.521 55.432 112.766 55.368C112.99 55.368 113.177 55.4373 113.326 55.576V55.688C113.326 56.0507 113.198 56.28 112.942 56.376C112.846 56.6 112.643 56.744 112.334 56.808L112.142 56.984H111.934L111.566 57.08C111.481 57.1013 111.358 57.112 111.198 57.112C111.113 57.112 111.022 57.0907 110.926 57.048H110.718L110.158 56.744L110.014 56.696L109.678 56.248L109.486 56.04L109.134 55.24L109.006 54.488L109.038 54.296L108.91 54.12L108.99 53.896L108.91 53.544L109.022 53.432L109.054 53.224L109.006 53.032L109.038 52.744L108.974 52.488L109.054 52.408V52.152L108.942 52.104L108.638 52.168L108.35 51.96H108.302C107.982 51.96 107.822 51.7893 107.822 51.448V51.4L107.63 51.096L107.934 50.808L108.334 50.872L108.542 50.84L108.846 50.92H109.182V50.6L108.974 50.152L109.182 50.04L109.102 49.8L109.118 49.304L108.99 49.096C108.915 48.9787 108.878 48.872 108.878 48.776C108.878 48.6587 108.905 48.5627 108.958 48.488L109.006 48.264L109.134 48.136C109.422 48.0827 109.614 48.056 109.71 48.056C110.051 48.056 110.238 48.2107 110.27 48.52L110.222 48.6C110.286 48.696 110.318 48.7867 110.318 48.872C110.318 48.8827 110.313 48.9093 110.302 48.952L110.27 49.048L110.254 49.16L110.318 49.368L110.302 49.448L110.334 49.672L110.19 49.864L110.27 50.184L110.206 50.568L110.334 50.712L110.206 51L110.702 50.936L111.582 51.016L112.286 50.904L112.526 50.92L112.606 50.904H113.23C113.561 50.904 113.726 51.0213 113.726 51.256ZM121.191 56.84C121.191 57.2667 120.962 57.48 120.503 57.48C120.279 57.48 120.114 57.3893 120.007 57.208C119.9 57.0587 119.81 56.776 119.735 56.36V56.136C119.767 56.0827 119.783 56.0293 119.783 55.976C119.783 55.9547 119.778 55.928 119.767 55.896L119.543 55.56L119.703 55.256L119.639 54.92L119.703 54.728V54.52L119.735 54.328L119.671 54.04L119.735 53.896V53.368L119.751 52.68L119.639 52.152L119.703 51.96L119.591 51.56L119.463 51.672L119.111 51.816L118.631 52.424L118.439 52.408L118.151 52.872L118.103 53.064L117.927 53.144L117.751 53.416L117.671 53.592L117.495 54.152L117.207 54.504L117.143 54.728L116.983 54.856L116.919 55.24L116.599 55.528L116.551 56.12H116.407L116.359 56.216L116.071 56.712L115.799 57L115.559 57.32L115.303 57.24H115.095L114.903 56.984L114.727 56.408L114.695 55.56L114.647 55.288L114.695 54.968L114.663 54.216L114.791 54.184L114.871 53.08L114.935 52.872L114.887 52.536L114.967 52.488L115.031 51.976L115.095 51.8L115.031 51.576L115.079 51.496L115.047 51.448L115.095 51L114.967 50.888L115.079 50.664L115.063 50.2L114.887 49.736L115.015 49.592L114.903 49.16V48.904L114.855 48.792L114.775 48.28L114.695 48.04L114.455 47.576L114.631 47.352L114.791 47.08H114.935C115.17 47.08 115.346 47.1653 115.463 47.336L115.687 47.512L115.783 47.8L116.023 48.008L115.975 48.232L116.087 48.568L116.071 48.6L116.103 48.632L116.087 49.16L116.103 49.864L116.215 50.312L116.135 50.504L116.167 50.776L116.087 51L116.135 51.384L116.055 51.704L116.087 51.768L116.055 52.744L116.103 52.968L116.007 53.08L115.959 53.608L115.895 53.848L115.959 54.28L115.895 54.408L115.879 54.728C115.996 54.696 116.055 54.632 116.055 54.536L116.183 54.408L116.295 54.2L116.327 53.896L116.503 53.64L116.599 53.32L116.839 53.064L116.903 52.76L117.063 52.744V52.6L117.079 52.408L117.271 52.296V52.168L117.431 52.136L117.463 51.88L117.447 51.752L117.735 51.624L117.815 51.56L117.783 51.4L117.927 51.352L118.039 51.08H118.231L118.407 50.968C118.407 50.8933 118.412 50.84 118.423 50.808L118.599 50.728C118.791 50.568 118.972 50.472 119.143 50.44V50.408C119.42 50.2693 119.612 50.2 119.719 50.2C119.879 50.2 120.023 50.2747 120.151 50.424C120.268 50.4667 120.343 50.5467 120.375 50.664L120.519 50.76L120.567 50.984L120.807 51.352V52.632L120.791 53.192L120.855 53.336V54.52L120.807 54.728V55.048L120.855 55.4L120.791 55.704C120.834 55.864 120.86 55.9973 120.871 56.104L121.047 56.28V56.408L121.111 56.456C121.164 56.6373 121.191 56.7653 121.191 56.84ZM127.978 55.688C127.978 55.816 127.882 55.976 127.69 56.168C127.637 56.3387 127.557 56.4773 127.45 56.584L127.354 56.6L127.178 56.904L126.89 56.952L126.586 57.144L126.426 57.432L126.25 57.4C126.133 57.4533 126.037 57.4853 125.962 57.496L125.866 57.64C125.834 57.6293 125.786 57.624 125.722 57.624C125.584 57.624 125.45 57.72 125.322 57.912L125.098 57.72C125.056 57.7307 124.992 57.736 124.906 57.736C124.768 57.736 124.65 57.7147 124.554 57.672H124.282L124.154 57.592C123.749 57.528 123.493 57.3733 123.386 57.128V57.08L123.194 56.984L123.098 56.712L122.906 56.584V56.344L122.714 55.64L122.746 55.064L122.81 54.808V54.472L122.89 54.216L122.874 54.104L122.986 53.912L122.954 53.944C122.954 53.848 122.981 53.7467 123.034 53.64V53.56L122.986 53.176C122.986 52.9947 123.066 52.8347 123.226 52.696C123.237 52.6747 123.242 52.6427 123.242 52.6C123.242 52.5573 123.221 52.472 123.178 52.344C123.146 52.2053 123.13 52.1093 123.13 52.056C123.13 51.928 123.162 51.7947 123.226 51.656C123.312 51.784 123.434 51.848 123.594 51.848H123.642C123.664 51.8053 123.712 51.7573 123.786 51.704C123.872 51.4373 123.989 51.2133 124.138 51.032L124.202 50.968C124.202 50.9253 124.234 50.8027 124.298 50.6H124.426L124.458 50.52L124.586 50.488C124.64 50.4027 124.672 50.3547 124.682 50.344C124.704 50.3227 124.821 50.2533 125.034 50.136C125.077 50.0613 125.141 49.992 125.226 49.928C125.269 49.9067 125.322 49.8853 125.386 49.864L125.45 49.768C125.738 49.672 125.92 49.624 125.994 49.624C126.08 49.624 126.16 49.6453 126.234 49.688L126.314 49.672L126.426 49.736C126.554 49.832 126.682 49.912 126.81 49.976L127.082 50.184V50.248C127.328 50.44 127.45 50.712 127.45 51.064L127.402 51.224L127.45 51.752L127.306 51.848L127.146 52.264L126.842 52.6L126.826 52.856C126.485 53.1013 126.17 53.2987 125.882 53.448C125.786 53.5973 125.637 53.672 125.434 53.672H125.386L125.082 53.864H124.826L124.442 54.024L124.154 53.88H124.122C124.101 53.9653 124.08 54.0933 124.058 54.264L123.93 54.36L123.914 54.552L123.818 54.824C123.85 55.08 123.866 55.2453 123.866 55.32L123.802 55.368C123.802 55.5067 123.797 55.608 123.786 55.672C123.786 55.6827 123.781 55.6987 123.77 55.72C123.77 55.7413 123.77 55.7573 123.77 55.768C123.77 55.8533 123.813 55.9227 123.898 55.976C123.93 56.104 123.984 56.184 124.058 56.216L124.17 56.312L124.522 56.408V56.456L124.65 56.488L125.194 56.52L125.514 56.472L125.674 56.36L125.77 56.328L125.93 56.088L126.01 56.072L126.41 55.944C126.453 55.8693 126.522 55.8053 126.618 55.752L126.666 55.672C126.88 55.6293 127.002 55.5173 127.034 55.336C127.184 55.1867 127.376 55.112 127.61 55.112H127.674C127.877 55.3467 127.978 55.5387 127.978 55.688ZM126.394 51.08C126.394 51.048 126.378 50.984 126.346 50.888L126.266 50.872L126.234 50.888C126.224 50.888 126.202 50.888 126.17 50.888C126.149 50.8987 126.128 50.904 126.106 50.904C126.096 50.904 126.08 50.8987 126.058 50.888C126.037 50.888 126.021 50.888 126.01 50.888L125.85 51L125.706 51.016L125.626 51.048L125.354 51.4L125.178 51.528L124.922 51.976L124.778 52.072C124.746 52.2533 124.672 52.408 124.554 52.536L124.49 52.648C124.608 52.5733 124.741 52.536 124.89 52.536L125.002 52.488L125.05 52.344L125.274 52.36L125.402 52.168H125.498L125.674 52.232L125.754 51.992H125.866V51.816L126.074 51.768L126.122 51.72L126.154 51.576L126.362 51.272C126.384 51.2187 126.394 51.1547 126.394 51.08ZM140.552 49.576L140.392 49.848L140.44 50.152L140.2 50.296L140.136 50.632L139.992 50.744L139.944 51.096H139.896C139.864 51.2453 139.773 51.3627 139.624 51.448L139.48 51.96L139.336 52.184C139.346 52.248 139.352 52.3173 139.352 52.392L139.096 52.616L138.728 53.464L138.424 53.96V54.12C138.424 54.2693 138.338 54.3973 138.168 54.504L138.136 54.792L138.024 54.856L137.832 55.112L137.784 55.288L137.672 55.368C137.672 55.4 137.682 55.4693 137.704 55.576L137.528 55.72L137.24 55.896L137.144 56.056L136.824 56.392C136.493 56.968 136.146 57.256 135.784 57.256C135.496 57.256 135.234 57.1067 135 56.808L135.048 56.92L134.488 56.104L134.456 55.912L134.36 55.848L134.344 55.464L134.168 55.288V54.888L133.752 53.96L133.784 53.8L133.656 53.576L133.624 53.4L133.544 53.288L133.432 53L133.144 52.776L133.016 52.248L132.792 52.056L132.664 51.848C132.397 51.7627 132.264 51.544 132.264 51.192C132.264 50.8933 132.493 50.6533 132.952 50.472C133.538 50.8667 133.885 51.2613 133.992 51.656L134.04 52.024C134.082 52.0027 134.157 51.9813 134.264 51.96V52.104L134.52 52.296L134.424 52.552L134.456 52.744L134.6 53.128L134.68 53.208L134.696 53.352L134.824 53.416V53.688L135 54.312L135.032 54.552L135.288 55.064L135.496 55.688L135.656 55.848H135.688C135.73 55.848 135.768 55.8053 135.8 55.72L135.928 55.672L135.88 55.544C135.912 55.48 135.949 55.448 135.992 55.448C136.034 55.448 136.077 55.464 136.12 55.496C136.194 55.2827 136.248 55.176 136.28 55.176C136.29 55.176 136.296 55.192 136.296 55.224C136.338 55.096 136.44 54.9893 136.6 54.904L136.808 54.6L136.936 54.28L137.096 54.152L137.192 53.944L137.256 53.896L137.224 53.688L137.4 53.608L137.432 53.528C137.432 53.4853 137.458 53.4267 137.512 53.352L137.624 53.064L137.704 53.16L137.768 53.128V53.08C137.768 52.9413 137.826 52.824 137.944 52.728V52.696L138.056 52.488L138.136 52.136L138.248 52.104L138.456 51.608L138.6 51.416C138.632 51.256 138.706 51.1333 138.824 51.048L138.968 50.6L139.08 50.456V50.12H139.16C139.288 50.0347 139.394 49.9067 139.48 49.736C139.565 49.5547 139.629 49.448 139.672 49.416L139.752 49.368L140.2 49.096L140.552 49.576ZM146.586 53.256L146.49 53.544C146.49 53.8213 146.474 54.04 146.442 54.2L146.346 54.36V54.536L146.266 54.648L146.218 54.872L146.042 55.048L145.93 55.448L145.802 55.496L145.738 55.672L145.546 55.784L145.418 56.056L145.226 56.152L145.21 56.344L144.906 56.456C144.767 56.648 144.597 56.7707 144.394 56.824L144.33 56.84C144.181 57.064 143.983 57.176 143.738 57.176C143.631 57.24 143.509 57.272 143.37 57.272L143.21 57.384L143.05 57.432L142.842 57.592L142.634 57.576L142.41 57.64L142.138 57.528L141.45 57.48L141.21 57.112L140.858 56.744L140.938 56.488L140.698 55.944L140.81 55.736L140.73 55.352L140.81 55.112C140.789 54.9627 140.778 54.856 140.778 54.792C140.778 54.5893 140.831 54.44 140.938 54.344C140.949 54.2373 141.018 54.0613 141.146 53.816H141.226L141.194 53.704L141.242 53.48V53.24C141.327 53.144 141.375 53.08 141.386 53.048L141.338 52.824V52.76C141.413 52.6107 141.45 52.456 141.45 52.296L141.786 51.832C141.786 51.832 141.797 51.8213 141.818 51.8C141.85 51.7787 141.877 51.7573 141.898 51.736L141.882 51.672H141.946L142.186 51.4L142.202 51.032L142.602 50.888C142.751 50.792 142.847 50.632 142.89 50.408H143.098C143.215 50.344 143.322 50.312 143.418 50.312C143.514 50.312 143.605 50.3333 143.69 50.376L143.866 50.392L144.282 50.232L144.506 50.44L144.682 50.552H144.81L145.05 50.68H145.178C145.317 50.808 145.477 50.984 145.658 51.208L145.69 51.288L145.802 51.352L146.138 51.784L146.442 52.536V52.696L146.586 53.256ZM145.53 53.64L145.514 53.56C145.439 53.4853 145.397 53.4053 145.386 53.32L145.434 53.24L145.29 52.936L145.322 52.632L145.258 52.552C145.119 52.4453 145.045 52.36 145.034 52.296C144.938 52.2533 144.89 52.1467 144.89 51.976L144.794 51.96L144.602 51.64L144.458 51.528L144.122 51.4L143.994 51.368C143.93 51.368 143.887 51.3467 143.866 51.304L143.546 51.656L143.338 52.104L143.002 52.28L142.954 52.456L142.794 52.536L142.73 52.952L142.538 53.048C142.495 53.1973 142.474 53.336 142.474 53.464L142.218 53.704L142.298 53.752C142.298 53.88 142.25 53.992 142.154 54.088C142.122 54.184 142.079 54.2907 142.026 54.408V54.536L141.978 54.6L141.994 54.792L141.818 55.224L141.85 55.304V55.752L141.786 55.976L141.802 56.2L141.946 56.408L142.17 56.488L142.25 56.52L142.378 56.456L142.794 56.488L142.858 56.328H142.922C142.986 56.328 143.023 56.344 143.034 56.376L143.178 56.328L143.306 56.376L143.514 56.232L143.546 56.184L143.69 56.152C143.765 56.0347 143.941 55.9173 144.218 55.8L144.25 55.72L144.57 55.496L144.746 55.24L145.002 55.112L145.018 55.032L145.098 54.856V54.648L145.29 54.488L145.354 54.376L145.434 54.28C145.391 54.152 145.37 54.0613 145.37 54.008C145.37 53.912 145.402 53.8107 145.466 53.704L145.53 53.64ZM150.518 46.184C150.518 46.312 150.433 46.4293 150.262 46.536V46.568C150.059 46.8133 149.883 46.952 149.734 46.984L149.494 47.272L149.334 47.48L148.966 47.576L148.806 47.8L148.55 47.928L148.134 48.296L147.878 48.056L147.926 47.656L148.102 47.368C148.113 47.2187 148.198 47.0907 148.358 46.984V46.92L148.454 46.856L148.47 46.616L148.726 46.552V46.408L148.918 46.376C148.961 46.1627 149.051 46.008 149.19 45.912L149.238 45.88L149.334 45.784L149.462 45.4C150.166 45.5707 150.518 45.832 150.518 46.184ZM152.15 54.664C152.15 54.9093 152.107 55.064 152.022 55.128L151.942 55.192L151.862 55.416L151.606 55.496C151.531 55.6667 151.419 55.8 151.27 55.896L151.126 55.944L150.918 56.168L150.726 56.216C150.651 56.408 150.497 56.5093 150.262 56.52C150.241 56.552 150.193 56.616 150.118 56.712C149.958 56.8187 149.793 56.8827 149.622 56.904L149.542 56.92L149.43 57.064H149.11L148.854 57.256L148.198 56.776L147.894 56.152L147.878 55.368L147.814 55.176L148.006 53.768L148.07 53.704C148.038 53.544 148.022 53.3893 148.022 53.24C148.022 53.144 148.054 52.9467 148.118 52.648L148.198 52.28C148.177 52.216 148.134 52.1467 148.07 52.072L148.166 51.768L148.198 51.4L148.23 51.352C148.187 51.256 148.161 51.1493 148.15 51.032C148.161 51.0107 148.171 50.984 148.182 50.952C148.193 50.9093 148.198 50.8773 148.198 50.856C148.166 50.76 148.15 50.6693 148.15 50.584C148.15 50.328 148.294 50.2107 148.582 50.232L148.774 50.248C148.902 50.184 148.982 50.152 149.014 50.152C149.227 50.152 149.371 50.2693 149.446 50.504V50.568C149.489 50.696 149.51 50.8187 149.51 50.936C149.51 51.032 149.499 51.1013 149.478 51.144L149.366 51.944L149.478 52.168C149.478 52.36 149.414 52.5307 149.286 52.68L149.35 52.872L149.142 53.48C149.121 53.7467 149.094 53.9493 149.062 54.088V54.488L148.966 54.712L148.982 54.872L148.95 55.24L148.982 55.528L149.222 55.72L149.414 55.688L149.446 55.64L149.574 55.656L149.782 55.592L149.958 55.416L150.022 55.32L150.134 55.304L150.166 55.224L150.214 55.16L150.31 55.224L150.47 55.064L150.566 55.08L150.598 54.968H150.63L150.678 54.84L150.822 54.776L151.126 54.632C151.371 54.4613 151.611 54.376 151.846 54.376H151.91C152.027 54.4507 152.107 54.5467 152.15 54.664ZM158.968 54.504L158.664 54.792L158.648 54.888C158.616 55.08 158.525 55.2347 158.376 55.352C158.12 55.832 157.763 56.184 157.304 56.408L157.064 56.6L156.856 56.632L156.6 56.824L156.424 56.84L156.024 57.096L155.768 57.064L155.48 57.192L155.256 57.128L155.144 57.224L154.84 57.176L154.536 57.224L154.424 57.128L154.104 57.064L153.64 56.712L153.384 56.392C153.224 56.1893 153.144 56.0187 153.144 55.88V55.832L152.984 55.592V55.384C152.952 55.256 152.936 55.1387 152.936 55.032V54.92L152.856 54.648L152.936 54.456L152.872 54.328L153.064 54.024L153.016 53.768L153.144 53.352L153.208 53.256L153.272 52.872L153.24 52.808L153.432 52.6L153.464 52.44L153.592 52.072L153.8 51.624L154.088 51.368L154.152 51.224L154.248 51.048L154.28 50.888L154.536 50.584C154.6 50.5627 154.675 50.5413 154.76 50.52C154.803 50.3173 155.069 50.2 155.56 50.168C155.976 50.2533 156.243 50.3653 156.36 50.504C156.477 50.5253 156.568 50.5733 156.632 50.648L156.968 50.664L157.192 50.952C157.245 51.0587 157.283 51.1653 157.304 51.272L157.432 51.4L157.384 51.64C157.395 51.7147 157.4 51.832 157.4 51.992L157.48 52.056V52.296L157.544 52.792C157.32 53.016 157.064 53.144 156.776 53.176C156.627 52.8987 156.44 52.6907 156.216 52.552L156.184 52.024L156.088 51.848V51.72L155.928 51.528L155.848 51.464L155.704 51.512H155.496C155.357 51.544 155.224 51.6453 155.096 51.816C154.968 51.9867 154.84 52.168 154.712 52.36L154.696 52.52L154.6 52.6V52.888L154.392 53.112L154.136 53.816L154.152 54.008L154.024 54.296L154.072 54.648L153.976 54.696L153.944 55.144L153.96 55.224L154.152 55.416L154.232 55.752L154.456 55.816L154.472 55.944L154.744 55.992L154.952 56.04C155.027 55.9973 155.117 55.976 155.224 55.976H155.336C155.464 55.9227 155.581 55.896 155.688 55.896C155.763 55.864 155.859 55.832 155.976 55.8C156.104 55.6293 156.285 55.544 156.52 55.544H156.616C156.669 55.544 156.707 55.5173 156.728 55.464C156.845 55.2827 157.032 55.1653 157.288 55.112C157.587 54.8453 157.757 54.632 157.8 54.472C157.949 54.3867 158.045 54.2533 158.088 54.072L158.184 54.008L158.232 53.64C158.723 53.7147 158.968 53.96 158.968 54.376V54.504ZM164.963 55.688C164.963 55.816 164.867 55.976 164.675 56.168C164.621 56.3387 164.541 56.4773 164.435 56.584L164.339 56.6L164.163 56.904L163.875 56.952L163.571 57.144L163.411 57.432L163.235 57.4C163.117 57.4533 163.021 57.4853 162.947 57.496L162.851 57.64C162.819 57.6293 162.771 57.624 162.707 57.624C162.568 57.624 162.435 57.72 162.307 57.912L162.083 57.72C162.04 57.7307 161.976 57.736 161.891 57.736C161.752 57.736 161.635 57.7147 161.539 57.672H161.267L161.139 57.592C160.733 57.528 160.477 57.3733 160.371 57.128V57.08L160.179 56.984L160.083 56.712L159.891 56.584V56.344L159.699 55.64L159.731 55.064L159.795 54.808V54.472L159.875 54.216L159.859 54.104L159.971 53.912L159.939 53.944C159.939 53.848 159.965 53.7467 160.019 53.64V53.56L159.971 53.176C159.971 52.9947 160.051 52.8347 160.211 52.696C160.221 52.6747 160.227 52.6427 160.227 52.6C160.227 52.5573 160.205 52.472 160.163 52.344C160.131 52.2053 160.115 52.1093 160.115 52.056C160.115 51.928 160.147 51.7947 160.211 51.656C160.296 51.784 160.419 51.848 160.579 51.848H160.627C160.648 51.8053 160.696 51.7573 160.771 51.704C160.856 51.4373 160.973 51.2133 161.123 51.032L161.187 50.968C161.187 50.9253 161.219 50.8027 161.283 50.6H161.411L161.443 50.52L161.571 50.488C161.624 50.4027 161.656 50.3547 161.667 50.344C161.688 50.3227 161.805 50.2533 162.019 50.136C162.061 50.0613 162.125 49.992 162.211 49.928C162.253 49.9067 162.307 49.8853 162.371 49.864L162.435 49.768C162.723 49.672 162.904 49.624 162.979 49.624C163.064 49.624 163.144 49.6453 163.219 49.688L163.299 49.672L163.411 49.736C163.539 49.832 163.667 49.912 163.795 49.976L164.067 50.184V50.248C164.312 50.44 164.435 50.712 164.435 51.064L164.387 51.224L164.435 51.752L164.291 51.848L164.131 52.264L163.827 52.6L163.811 52.856C163.469 53.1013 163.155 53.2987 162.867 53.448C162.771 53.5973 162.621 53.672 162.419 53.672H162.371L162.067 53.864H161.811L161.427 54.024L161.139 53.88H161.107C161.085 53.9653 161.064 54.0933 161.043 54.264L160.915 54.36L160.899 54.552L160.803 54.824C160.835 55.08 160.851 55.2453 160.851 55.32L160.787 55.368C160.787 55.5067 160.781 55.608 160.771 55.672C160.771 55.6827 160.765 55.6987 160.755 55.72C160.755 55.7413 160.755 55.7573 160.755 55.768C160.755 55.8533 160.797 55.9227 160.883 55.976C160.915 56.104 160.968 56.184 161.043 56.216L161.155 56.312L161.507 56.408V56.456L161.635 56.488L162.179 56.52L162.499 56.472L162.659 56.36L162.755 56.328L162.915 56.088L162.995 56.072L163.395 55.944C163.437 55.8693 163.507 55.8053 163.603 55.752L163.651 55.672C163.864 55.6293 163.987 55.5173 164.019 55.336C164.168 55.1867 164.36 55.112 164.595 55.112H164.659C164.861 55.3467 164.963 55.5387 164.963 55.688ZM163.379 51.08C163.379 51.048 163.363 50.984 163.331 50.888L163.251 50.872L163.219 50.888C163.208 50.888 163.187 50.888 163.155 50.888C163.133 50.8987 163.112 50.904 163.091 50.904C163.08 50.904 163.064 50.8987 163.043 50.888C163.021 50.888 163.005 50.888 162.995 50.888L162.835 51L162.691 51.016L162.611 51.048L162.339 51.4L162.163 51.528L161.907 51.976L161.763 52.072C161.731 52.2533 161.656 52.408 161.539 52.536L161.475 52.648C161.592 52.5733 161.725 52.536 161.875 52.536L161.987 52.488L162.035 52.344L162.259 52.36L162.387 52.168H162.483L162.659 52.232L162.739 51.992H162.851V51.816L163.059 51.768L163.107 51.72L163.139 51.576L163.347 51.272C163.368 51.2187 163.379 51.1547 163.379 51.08ZM175.664 53.256L175.568 53.544C175.568 53.8213 175.552 54.04 175.52 54.2L175.424 54.36V54.536L175.344 54.648L175.296 54.872L175.12 55.048L175.008 55.448L174.88 55.496L174.816 55.672L174.624 55.784L174.496 56.056L174.304 56.152L174.288 56.344L173.984 56.456C173.845 56.648 173.675 56.7707 173.472 56.824L173.408 56.84C173.259 57.064 173.061 57.176 172.816 57.176C172.709 57.24 172.587 57.272 172.448 57.272L172.288 57.384L172.128 57.432L171.92 57.592L171.712 57.576L171.488 57.64L171.216 57.528L170.528 57.48L170.288 57.112L169.936 56.744L170.016 56.488L169.776 55.944L169.888 55.736L169.808 55.352L169.888 55.112C169.867 54.9627 169.856 54.856 169.856 54.792C169.856 54.5893 169.909 54.44 170.016 54.344C170.027 54.2373 170.096 54.0613 170.224 53.816H170.304L170.272 53.704L170.32 53.48V53.24C170.405 53.144 170.453 53.08 170.464 53.048L170.416 52.824V52.76C170.491 52.6107 170.528 52.456 170.528 52.296L170.864 51.832C170.864 51.832 170.875 51.8213 170.896 51.8C170.928 51.7787 170.955 51.7573 170.976 51.736L170.96 51.672H171.024L171.264 51.4L171.28 51.032L171.68 50.888C171.829 50.792 171.925 50.632 171.968 50.408H172.176C172.293 50.344 172.4 50.312 172.496 50.312C172.592 50.312 172.683 50.3333 172.768 50.376L172.944 50.392L173.36 50.232L173.584 50.44L173.76 50.552H173.888L174.128 50.68H174.256C174.395 50.808 174.555 50.984 174.736 51.208L174.768 51.288L174.88 51.352L175.216 51.784L175.52 52.536V52.696L175.664 53.256ZM174.608 53.64L174.592 53.56C174.517 53.4853 174.475 53.4053 174.464 53.32L174.512 53.24L174.368 52.936L174.4 52.632L174.336 52.552C174.197 52.4453 174.123 52.36 174.112 52.296C174.016 52.2533 173.968 52.1467 173.968 51.976L173.872 51.96L173.68 51.64L173.536 51.528L173.2 51.4L173.072 51.368C173.008 51.368 172.965 51.3467 172.944 51.304L172.624 51.656L172.416 52.104L172.08 52.28L172.032 52.456L171.872 52.536L171.808 52.952L171.616 53.048C171.573 53.1973 171.552 53.336 171.552 53.464L171.296 53.704L171.376 53.752C171.376 53.88 171.328 53.992 171.232 54.088C171.2 54.184 171.157 54.2907 171.104 54.408V54.536L171.056 54.6L171.072 54.792L170.896 55.224L170.928 55.304V55.752L170.864 55.976L170.88 56.2L171.024 56.408L171.248 56.488L171.328 56.52L171.456 56.456L171.872 56.488L171.936 56.328H172C172.064 56.328 172.101 56.344 172.112 56.376L172.256 56.328L172.384 56.376L172.592 56.232L172.624 56.184L172.768 56.152C172.843 56.0347 173.019 55.9173 173.296 55.8L173.328 55.72L173.648 55.496L173.824 55.24L174.08 55.112L174.096 55.032L174.176 54.856V54.648L174.368 54.488L174.432 54.376L174.512 54.28C174.469 54.152 174.448 54.0613 174.448 54.008C174.448 53.912 174.48 53.8107 174.544 53.704L174.608 53.64ZM184.06 47.448C184.06 47.6613 183.932 47.8747 183.676 48.088L183.548 48.008L183.292 48.152L182.972 47.528C182.951 47.368 182.908 47.2347 182.844 47.128L182.748 47.176L182.476 47.032L182.38 47.016L182.172 47.144L181.836 47.048L181.724 47.096C181.628 47.2027 181.532 47.256 181.436 47.256C181.394 47.256 181.356 47.2507 181.324 47.24V47.4C181.218 47.5707 181.084 47.7787 180.924 48.024C180.914 48.1307 180.876 48.328 180.812 48.616L180.668 48.712L180.604 48.888L180.524 49.032L180.604 49.352L180.412 49.64L180.348 49.88L180.284 50.008L180.3 50.232L180.076 50.808L180.108 51.08C180.098 51.1227 180.034 51.272 179.916 51.528L179.9 51.592C180.007 51.5493 180.098 51.5227 180.172 51.512L180.268 51.528C180.29 51.5173 180.338 51.5013 180.412 51.48H180.46C180.46 51.48 180.642 51.4907 181.004 51.512L181.052 51.48C181.18 51.4587 181.255 51.448 181.276 51.448C181.383 51.448 181.5 51.4747 181.628 51.528C181.756 51.496 181.868 51.48 181.964 51.48C182.05 51.48 182.124 51.496 182.188 51.528H182.332L182.54 51.576C182.924 51.5867 183.116 51.7413 183.116 52.04C183.116 52.1253 183.1 52.2267 183.068 52.344L182.348 52.552L181.932 52.488C181.815 52.52 181.618 52.5573 181.34 52.6L181.26 52.52C181.186 52.5947 181.084 52.632 180.956 52.632H180.78L180.332 52.84L180.108 52.728H180.028C179.943 52.8347 179.836 52.904 179.708 52.936L179.724 53.032L179.66 53.256L179.756 53.528L179.548 53.944L179.596 54.584L179.516 54.808L179.564 55.032L179.404 55.384L179.452 55.576C179.463 55.5867 179.468 55.6133 179.468 55.656C179.468 55.6667 179.447 55.784 179.404 56.008C179.362 56.2213 179.34 56.4347 179.34 56.648V56.792C179.351 56.8027 179.41 56.872 179.516 57L179.404 57.272L179.516 57.592L179.436 57.848L179.612 58.632L179.66 59.496L179.916 59.816L179.772 60.168C179.9 60.392 179.964 60.5733 179.964 60.712V60.76C179.964 60.7813 179.97 60.808 179.98 60.84C179.98 60.8827 179.98 60.9093 179.98 60.92C179.98 61.3253 179.746 61.5387 179.276 61.56L179.148 61.304L178.956 61.192L178.924 60.904L178.604 60.008V59.832C178.562 59.64 178.54 59.528 178.54 59.496C178.54 59.4427 178.546 59.4053 178.556 59.384L178.508 59.112L178.556 58.84L178.508 58.664V58.312L178.348 57.304L178.38 57.272L178.348 57.096L178.38 56.872L178.268 56.664L178.364 56.488V55.656L178.444 55.56V54.984L178.492 54.856L178.444 54.36L178.508 54.168C178.53 53.9867 178.594 53.5813 178.7 52.952H178.636L178.428 52.888H178.188L177.74 52.952L177.468 52.888L177.004 52.984L176.844 52.952C176.791 52.9627 176.727 52.968 176.652 52.968C176.183 52.7547 175.932 52.5893 175.9 52.472L175.82 52.2C175.959 51.784 176.151 51.576 176.396 51.576C176.407 51.576 176.588 51.6133 176.94 51.688L177.868 51.72L178.316 51.624L178.7 51.64L178.844 51.656L178.892 51.448L178.924 50.984L179.004 50.792L178.956 50.472C178.956 50.3547 178.999 50.2533 179.084 50.168L179.068 49.992L179.244 49.8L179.324 49.32L179.388 49.24L179.34 49.032C179.468 48.8827 179.532 48.76 179.532 48.664C179.522 48.6 179.516 48.568 179.516 48.568C179.516 48.6533 179.596 48.408 179.756 47.832L179.868 47.752L179.884 47.4L179.916 47.48V47.432C179.916 47.2507 179.991 47.1173 180.14 47.032L180.236 46.888L180.428 46.424H180.46C180.578 46.424 180.636 46.3547 180.636 46.216V46.152L181.084 45.992H181.212C181.351 45.9493 181.495 45.928 181.644 45.928H181.756L181.836 45.896L182.188 45.816L182.604 45.912C182.626 45.9227 182.668 45.9387 182.732 45.96C182.839 45.9173 182.914 45.896 182.956 45.896C183.106 45.896 183.244 46.008 183.372 46.232L183.596 46.392L183.756 46.712L183.996 46.952L184.06 47.4V47.448ZM197.676 50.536L197.596 50.84L197.628 51L197.436 51.624L197.404 51.848L197.18 52.088L197.1 52.392L196.924 52.648L196.668 53.208L196.364 53.72L195.9 54.408L195.82 54.616L195.58 55.048L195.308 55.608L194.828 56.472L194.732 56.856L194.476 57.224L193.996 57.064L193.724 56.904L193.468 56.152L193.148 55.608V55.448L192.956 55L192.876 54.904L192.204 53.496L191.996 53.16L191.82 53.432L191.564 53.64L191.196 54.152L190.94 54.424L190.796 54.84L190.444 55.272L190.412 55.416L190.172 55.912V56.152L190.012 56.376L189.996 56.6L189.836 56.648L189.484 57.016L189.548 56.984C189.441 57.048 189.297 57.0907 189.116 57.112L189.004 56.984L188.764 56.888V56.712L188.668 56.584L188.572 56.152L188.444 55.864V55.656L188.428 55.592L188.188 54.904L188.124 54.472L187.964 54.296L187.996 54.088L187.836 53.704V53.56L187.708 53.208L187.484 52.904L187.516 52.552L187.5 52.44L187.324 52.024L187.292 51.768L187.196 51.608C187.132 51.5013 187.084 51.3947 187.052 51.288L186.78 50.6L187.004 50.312C187.068 50.1947 187.201 50.12 187.404 50.088L187.74 50.04L187.852 50.2L188.06 50.296L188.204 50.584L188.332 50.696L188.284 50.952L188.348 51.112L188.3 51.256L188.46 51.512L188.428 51.752L188.636 52.472L188.604 52.648L188.7 53.08L188.924 53.592L189.02 54.2L189.18 54.392V54.776L189.292 55.112L189.308 55.24L189.532 55.096L189.9 54.504L190.012 54.232L190.14 54.008C190.14 53.9013 190.161 53.8213 190.204 53.768H190.3L190.348 53.48L190.524 53.448C190.545 53.3627 190.593 53.2987 190.668 53.256V53.224C190.668 53.16 190.7 53.096 190.764 53.032L190.732 52.92L190.812 52.888L190.796 52.792C190.892 52.6213 190.999 52.4933 191.116 52.408V52.088L191.34 51.96L191.404 51.912L191.436 51.88C191.383 51.7733 191.356 51.656 191.356 51.528C191.356 51.336 191.441 51.1493 191.612 50.968C191.708 50.9253 191.825 50.904 191.964 50.904C192.049 50.904 192.113 50.9093 192.156 50.92L192.46 51.192L192.62 51.432L192.716 51.816L192.86 52.072L192.828 52.248L192.94 52.6V52.744L193.212 53.224V53.272L193.276 53.32L193.596 54.088L193.612 54.296L193.772 54.472L194.14 55.304L194.22 55.16L194.508 54.568L194.684 54.424L194.812 54.088L194.972 54.008V53.768C195.036 53.7147 195.121 53.6613 195.228 53.608C195.292 53.576 195.324 53.5493 195.324 53.528L195.308 53.192L195.5 53L195.58 52.952L195.82 52.552V52.504C195.841 52.3867 195.911 52.2533 196.028 52.104L195.996 51.928L196.284 51.576L196.428 51.224C196.311 50.904 196.252 50.632 196.252 50.408C196.252 50.0773 196.423 49.8907 196.764 49.848L197.196 49.976L197.26 49.88L197.372 50.024L197.532 50.136L197.484 50.312L197.676 50.536ZM204.008 53.256L203.912 53.544C203.912 53.8213 203.896 54.04 203.864 54.2L203.768 54.36V54.536L203.688 54.648L203.64 54.872L203.464 55.048L203.352 55.448L203.224 55.496L203.16 55.672L202.968 55.784L202.84 56.056L202.648 56.152L202.632 56.344L202.328 56.456C202.189 56.648 202.019 56.7707 201.816 56.824L201.752 56.84C201.603 57.064 201.405 57.176 201.16 57.176C201.053 57.24 200.931 57.272 200.792 57.272L200.632 57.384L200.472 57.432L200.264 57.592L200.056 57.576L199.832 57.64L199.56 57.528L198.872 57.48L198.632 57.112L198.28 56.744L198.36 56.488L198.12 55.944L198.232 55.736L198.152 55.352L198.232 55.112C198.211 54.9627 198.2 54.856 198.2 54.792C198.2 54.5893 198.253 54.44 198.36 54.344C198.371 54.2373 198.44 54.0613 198.568 53.816H198.648L198.616 53.704L198.664 53.48V53.24C198.749 53.144 198.797 53.08 198.808 53.048L198.76 52.824V52.76C198.835 52.6107 198.872 52.456 198.872 52.296L199.208 51.832C199.208 51.832 199.219 51.8213 199.24 51.8C199.272 51.7787 199.299 51.7573 199.32 51.736L199.304 51.672H199.368L199.608 51.4L199.624 51.032L200.024 50.888C200.173 50.792 200.269 50.632 200.312 50.408H200.52C200.637 50.344 200.744 50.312 200.84 50.312C200.936 50.312 201.027 50.3333 201.112 50.376L201.288 50.392L201.704 50.232L201.928 50.44L202.104 50.552H202.232L202.472 50.68H202.6C202.739 50.808 202.899 50.984 203.08 51.208L203.112 51.288L203.224 51.352L203.56 51.784L203.864 52.536V52.696L204.008 53.256ZM202.952 53.64L202.936 53.56C202.861 53.4853 202.819 53.4053 202.808 53.32L202.856 53.24L202.712 52.936L202.744 52.632L202.68 52.552C202.541 52.4453 202.467 52.36 202.456 52.296C202.36 52.2533 202.312 52.1467 202.312 51.976L202.216 51.96L202.024 51.64L201.88 51.528L201.544 51.4L201.416 51.368C201.352 51.368 201.309 51.3467 201.288 51.304L200.968 51.656L200.76 52.104L200.424 52.28L200.376 52.456L200.216 52.536L200.152 52.952L199.96 53.048C199.917 53.1973 199.896 53.336 199.896 53.464L199.64 53.704L199.72 53.752C199.72 53.88 199.672 53.992 199.576 54.088C199.544 54.184 199.501 54.2907 199.448 54.408V54.536L199.4 54.6L199.416 54.792L199.24 55.224L199.272 55.304V55.752L199.208 55.976L199.224 56.2L199.368 56.408L199.592 56.488L199.672 56.52L199.8 56.456L200.216 56.488L200.28 56.328H200.344C200.408 56.328 200.445 56.344 200.456 56.376L200.6 56.328L200.728 56.376L200.936 56.232L200.968 56.184L201.112 56.152C201.187 56.0347 201.363 55.9173 201.64 55.8L201.672 55.72L201.992 55.496L202.168 55.24L202.424 55.112L202.44 55.032L202.52 54.856V54.648L202.712 54.488L202.776 54.376L202.856 54.28C202.813 54.152 202.792 54.0613 202.792 54.008C202.792 53.912 202.824 53.8107 202.888 53.704L202.952 53.64ZM218.724 55.112C218.671 55.2613 218.601 55.3733 218.516 55.448C218.484 55.5653 218.436 55.6507 218.372 55.704C218.319 55.8107 218.255 55.8853 218.18 55.928L218.116 56.024C218.073 56.088 218.015 56.12 217.94 56.12L217.86 56.28H217.748L217.668 56.424L217.54 56.472L217.444 56.584L217.364 56.648C217.204 56.648 217.071 56.696 216.964 56.792C216.825 56.8453 216.681 56.872 216.532 56.872C216.383 56.872 216.233 56.8347 216.084 56.76C215.913 56.7493 215.828 56.7227 215.828 56.68L215.604 56.648L215.556 56.6L215.46 56.408L215.284 56.264C215.167 56.1253 215.103 55.9973 215.092 55.88C215.017 55.7733 214.943 55.5707 214.868 55.272L214.708 55.016V54.872L214.596 54.392L214.612 54.2L214.516 53.704L214.564 53.304L214.484 53.192L214.324 53.592C214.121 53.816 213.999 53.9547 213.956 54.008C213.924 54.0507 213.881 54.072 213.828 54.072C213.817 54.072 213.796 54.0667 213.764 54.056L213.668 54.232C213.657 54.2427 213.652 54.264 213.652 54.296C213.652 54.36 213.689 54.3973 213.764 54.408C213.743 54.4293 213.689 54.504 213.604 54.632C213.561 54.7173 213.524 54.776 213.492 54.808L213.444 54.728L213.412 54.952C213.273 55.0587 213.177 55.2187 213.124 55.432C213.017 55.5707 212.852 55.768 212.628 56.024L212.42 56.248C212.367 56.248 212.34 56.2587 212.34 56.28V56.312C212.276 56.4613 212.164 56.5787 212.004 56.664L211.812 56.904H211.7L211.316 57.048C210.996 57.0267 210.799 56.888 210.724 56.632L210.708 56.456L210.612 56.248V56.072L210.484 55.608V55.464L210.388 55.304L210.452 54.808C210.441 54.7547 210.436 54.68 210.436 54.584C210.436 54.4987 210.441 54.44 210.452 54.408L210.436 54.312V54.248L210.356 54.072L210.484 53.768C210.463 53.6827 210.431 53.544 210.388 53.352L210.436 53.208L210.484 52.744L210.356 52.408L210.388 52.136L210.34 51.992C210.329 51.96 210.292 51.8587 210.228 51.688L210.116 51.752L209.908 52.008L209.716 52.184L209.332 52.664L209.3 52.84L209.028 53.128L208.916 53.352L208.804 53.48C208.772 53.7147 208.655 53.88 208.452 53.976L208.436 54.2C208.372 54.264 208.303 54.3493 208.228 54.456C208.164 54.5627 208.116 54.6267 208.084 54.648C208.063 54.6587 208.02 54.6907 207.956 54.744L207.764 55.016C207.764 55.1973 207.695 55.3253 207.556 55.4V55.496C207.492 55.5813 207.407 55.6667 207.3 55.752L207.284 55.72L207.236 55.944C207.151 55.944 207.071 56.0453 206.996 56.248L206.948 56.312C206.937 56.4827 206.847 56.6107 206.676 56.696L206.452 56.904C206.281 56.9893 206.169 57.032 206.116 57.032C205.839 57.032 205.657 56.8027 205.572 56.344L205.508 55.992C205.497 55.9707 205.492 55.9387 205.492 55.896C205.492 55.8213 205.508 55.7467 205.54 55.672L205.46 55.368L205.492 55.112L205.46 54.856C205.481 54.632 205.519 54.4933 205.572 54.44C205.54 54.216 205.524 54.088 205.524 54.056V53.768C205.567 53.6933 205.62 53.5973 205.684 53.48L205.588 53.384C205.567 53.2987 205.556 53.2507 205.556 53.24C205.556 53.1653 205.62 53.0373 205.748 52.856L205.636 52.552L205.7 52.36L205.604 51.896L205.636 51.672L205.556 51.32L205.572 51.08L205.428 50.792C205.641 50.376 205.871 50.168 206.116 50.168C206.244 50.168 206.367 50.2213 206.484 50.328L206.516 50.488C206.697 50.584 206.788 50.728 206.788 50.92C206.788 50.888 206.772 51 206.74 51.256L206.676 51.24L206.82 51.512L206.724 51.64L206.708 51.704L206.804 52.44L206.772 53.064L206.724 53.176L206.788 53.432C206.82 53.4747 206.836 53.528 206.836 53.592C206.836 53.6773 206.793 53.7627 206.708 53.848C206.708 53.9973 206.681 54.12 206.628 54.216L206.676 54.696V54.888L206.692 54.856L206.788 54.712L207.012 54.312H207.06C207.124 54.312 207.193 54.2107 207.268 54.008L207.38 53.704C207.401 53.64 207.481 53.5387 207.62 53.4L207.684 53.112L207.876 52.824L207.94 52.6C207.993 52.568 208.047 52.5307 208.1 52.488L208.116 52.44C208.148 52.3973 208.265 52.2853 208.468 52.104L208.564 52.056L208.596 51.896L208.676 51.848C208.729 51.624 208.863 51.4747 209.076 51.4L209.012 51.352L209.076 51.32C209.065 51.3093 209.06 51.2933 209.06 51.272C209.06 51.2507 209.071 51.2187 209.092 51.176L209.348 51.064L209.396 50.808H209.572C209.572 50.7973 209.583 50.76 209.604 50.696L209.924 50.44C210.073 50.3973 210.175 50.376 210.228 50.376C210.356 50.376 210.532 50.4133 210.756 50.488L210.916 50.712L210.98 50.744L211.06 50.936L211.284 51.24V51.448L211.428 51.608V51.848C211.545 52.104 211.604 52.3227 211.604 52.504L211.556 52.696L211.652 52.968L211.476 53.144L211.54 53.496L211.524 53.592L211.508 53.672C211.487 53.7787 211.476 53.8587 211.476 53.912C211.476 53.9653 211.503 54.072 211.556 54.232L211.508 54.408L211.556 54.632L211.508 54.68C211.529 54.8293 211.561 55.08 211.604 55.432L211.588 55.496L212.1 54.936L212.26 54.632C212.303 54.568 212.372 54.4667 212.468 54.328V54.296C212.511 54.1253 212.58 54.008 212.676 53.944C212.676 53.88 212.729 53.8 212.836 53.704L212.964 53.624C213.007 53.4427 213.119 53.2933 213.3 53.176L213.38 52.952L213.524 52.76L213.684 52.6C213.78 52.5253 213.855 52.408 213.908 52.248L214.036 52.056L214.1 51.816L214.276 51.72L214.452 51.496L214.628 51.112C214.585 51.112 214.564 51.1013 214.564 51.08C214.564 51.08 214.575 51.0587 214.596 51.016L214.708 50.92L214.836 50.664C215.017 50.6 215.119 50.568 215.14 50.568C215.14 50.568 215.161 50.5787 215.204 50.6L215.492 50.616L215.748 50.728L215.972 50.984L216.02 51.208L216.004 51.384L215.924 51.448L215.748 51.784L215.684 52.152C215.737 52.2053 215.764 52.3013 215.764 52.44C215.721 52.4933 215.7 52.5627 215.7 52.648L215.636 52.776C215.657 52.8293 215.668 52.9147 215.668 53.032C215.668 53.128 215.663 53.1973 215.652 53.24L215.588 53.32L215.652 53.432L215.54 53.576C215.604 53.576 215.636 53.6453 215.636 53.784C215.657 53.848 215.668 53.8907 215.668 53.912C215.668 53.944 215.657 53.9813 215.636 54.024C215.657 54.1307 215.668 54.232 215.668 54.328V54.36C215.668 54.3813 215.737 54.6 215.876 55.016L215.908 55.176L216.084 55.368L216.18 55.592L216.276 55.64L216.34 55.736L216.42 55.752L216.564 55.784L216.644 55.768H216.692C216.799 55.768 216.927 55.7253 217.076 55.64C217.119 55.5333 217.231 55.4213 217.412 55.304C217.423 55.2507 217.487 55.1493 217.604 55L217.876 54.808L217.972 54.616C218.057 54.5627 218.148 54.536 218.244 54.536C218.361 54.536 218.489 54.568 218.628 54.632C218.692 54.7387 218.724 54.8987 218.724 55.112ZM224.666 55.688C224.666 55.816 224.57 55.976 224.378 56.168C224.325 56.3387 224.245 56.4773 224.138 56.584L224.042 56.6L223.866 56.904L223.578 56.952L223.274 57.144L223.114 57.432L222.938 57.4C222.821 57.4533 222.725 57.4853 222.65 57.496L222.554 57.64C222.522 57.6293 222.474 57.624 222.41 57.624C222.271 57.624 222.138 57.72 222.01 57.912L221.786 57.72C221.743 57.7307 221.679 57.736 221.594 57.736C221.455 57.736 221.338 57.7147 221.242 57.672H220.97L220.842 57.592C220.437 57.528 220.181 57.3733 220.074 57.128V57.08L219.882 56.984L219.786 56.712L219.594 56.584V56.344L219.402 55.64L219.434 55.064L219.498 54.808V54.472L219.578 54.216L219.562 54.104L219.674 53.912L219.642 53.944C219.642 53.848 219.669 53.7467 219.722 53.64V53.56L219.674 53.176C219.674 52.9947 219.754 52.8347 219.914 52.696C219.925 52.6747 219.93 52.6427 219.93 52.6C219.93 52.5573 219.909 52.472 219.866 52.344C219.834 52.2053 219.818 52.1093 219.818 52.056C219.818 51.928 219.85 51.7947 219.914 51.656C219.999 51.784 220.122 51.848 220.282 51.848H220.33C220.351 51.8053 220.399 51.7573 220.474 51.704C220.559 51.4373 220.677 51.2133 220.826 51.032L220.89 50.968C220.89 50.9253 220.922 50.8027 220.986 50.6H221.114L221.146 50.52L221.274 50.488C221.327 50.4027 221.359 50.3547 221.37 50.344C221.391 50.3227 221.509 50.2533 221.722 50.136C221.765 50.0613 221.829 49.992 221.914 49.928C221.957 49.9067 222.01 49.8853 222.074 49.864L222.138 49.768C222.426 49.672 222.607 49.624 222.682 49.624C222.767 49.624 222.847 49.6453 222.922 49.688L223.002 49.672L223.114 49.736C223.242 49.832 223.37 49.912 223.498 49.976L223.77 50.184V50.248C224.015 50.44 224.138 50.712 224.138 51.064L224.09 51.224L224.138 51.752L223.994 51.848L223.834 52.264L223.53 52.6L223.514 52.856C223.173 53.1013 222.858 53.2987 222.57 53.448C222.474 53.5973 222.325 53.672 222.122 53.672H222.074L221.77 53.864H221.514L221.13 54.024L220.842 53.88H220.81C220.789 53.9653 220.767 54.0933 220.746 54.264L220.618 54.36L220.602 54.552L220.506 54.824C220.538 55.08 220.554 55.2453 220.554 55.32L220.49 55.368C220.49 55.5067 220.485 55.608 220.474 55.672C220.474 55.6827 220.469 55.6987 220.458 55.72C220.458 55.7413 220.458 55.7573 220.458 55.768C220.458 55.8533 220.501 55.9227 220.586 55.976C220.618 56.104 220.671 56.184 220.746 56.216L220.858 56.312L221.21 56.408V56.456L221.338 56.488L221.882 56.52L222.202 56.472L222.362 56.36L222.458 56.328L222.618 56.088L222.698 56.072L223.098 55.944C223.141 55.8693 223.21 55.8053 223.306 55.752L223.354 55.672C223.567 55.6293 223.69 55.5173 223.722 55.336C223.871 55.1867 224.063 55.112 224.298 55.112H224.362C224.565 55.3467 224.666 55.5387 224.666 55.688ZM223.082 51.08C223.082 51.048 223.066 50.984 223.034 50.888L222.954 50.872L222.922 50.888C222.911 50.888 222.89 50.888 222.858 50.888C222.837 50.8987 222.815 50.904 222.794 50.904C222.783 50.904 222.767 50.8987 222.746 50.888C222.725 50.888 222.709 50.888 222.698 50.888L222.538 51L222.394 51.016L222.314 51.048L222.042 51.4L221.866 51.528L221.61 51.976L221.466 52.072C221.434 52.2533 221.359 52.408 221.242 52.536L221.178 52.648C221.295 52.5733 221.429 52.536 221.578 52.536L221.69 52.488L221.738 52.344L221.962 52.36L222.09 52.168H222.186L222.362 52.232L222.442 51.992H222.554V51.816L222.762 51.768L222.81 51.72L222.842 51.576L223.05 51.272C223.071 51.2187 223.082 51.1547 223.082 51.08ZM235.865 54.408C235.865 54.4933 235.796 54.6053 235.657 54.744L235.481 55.016L235.417 55.336L235.273 55.384L235.241 55.48C235.07 55.5333 234.948 55.6667 234.873 55.88C234.756 56.0293 234.628 56.136 234.489 56.2C234.436 56.2533 234.388 56.2907 234.345 56.312L234.265 56.456L234.121 56.488L233.705 56.712L233.161 56.776L233.017 56.744L232.777 56.792L232.681 56.68C232.532 56.6053 232.425 56.5307 232.361 56.456C232.233 56.424 232.137 56.3227 232.073 56.152C231.892 55.9387 231.801 55.768 231.801 55.64V55.592L231.689 55.4L231.657 55.368L231.561 55.08L231.417 54.776L231.449 54.408L231.289 54.2L231.049 52.824C231.017 52.6427 231.001 52.488 231.001 52.36L230.969 52.28L230.889 52.168L230.745 52.36L230.169 52.968L229.961 53.304L229.849 53.528L229.673 53.784L229.545 53.912L229.561 53.992L229.337 54.488L229.209 54.648L229.049 54.68L228.905 54.824C228.905 55.0373 228.804 55.176 228.601 55.24L228.569 55.272C228.473 55.5067 228.366 55.6507 228.249 55.704L228.105 55.928C227.87 56.1413 227.716 56.2747 227.641 56.328C227.609 56.4347 227.55 56.5253 227.465 56.6C227.444 56.632 227.406 56.6747 227.353 56.728C227.321 56.9093 227.172 57.0373 226.905 57.112L226.729 57.16C226.516 57.1493 226.34 57.0267 226.201 56.792L225.961 56.392L226.041 56.008L226.009 55.8L226.041 55.768L226.057 55.56L225.881 55.176L226.009 54.984L225.945 54.776L226.057 54.552L226.089 54.184L226.025 54.12L226.153 53.896L226.105 53.784L226.089 53.528L226.153 53.048C226.132 52.9413 226.121 52.872 226.121 52.84C226.121 52.8187 226.126 52.7973 226.137 52.776C226.137 52.744 226.137 52.7227 226.137 52.712L226.057 52.584L226.105 52.072L226.089 51.896L226.137 51.64L226.073 51.208L226.361 50.728C226.692 50.7813 226.921 50.856 227.049 50.952C227.177 51.0373 227.241 51.1973 227.241 51.432V51.576L227.353 51.768L227.305 52.104L227.369 52.744L227.257 53.048L227.305 53.384V53.656L227.177 53.832L227.273 54.12L227.177 54.296L227.161 54.472L227.257 54.648L227.129 54.984L227.081 55.128V55.272L227.161 55.432L227.433 55.16C227.433 55 227.486 54.8933 227.593 54.84C227.604 54.7333 227.646 54.6533 227.721 54.6L227.673 54.552L227.881 54.36L227.929 54.296V54.152L228.185 53.96L228.249 53.8L228.393 53.704L229.017 53C228.964 53.064 228.788 53.2613 228.489 53.592V53.624L228.521 53.512L228.729 53.272L228.873 53V52.84L229.113 52.76L229.145 52.552L229.209 52.488L229.225 52.408V52.296L229.449 52.072C229.449 52.0507 229.449 52.024 229.449 51.992C229.438 51.96 229.433 51.9387 229.433 51.928C229.433 51.736 229.54 51.6293 229.753 51.608C229.849 51.416 229.993 51.304 230.185 51.272L230.281 51.128L230.313 51.096C230.409 50.9573 230.553 50.8613 230.745 50.808L230.889 50.632H231.273L231.465 50.856L231.641 50.952L231.657 51L231.769 51.032L231.801 51.368L232.073 51.528L231.961 51.88L232.137 52.264V52.712L232.265 53.32L232.297 53.896L232.441 54.232L232.537 54.648C232.601 54.712 232.649 54.8027 232.681 54.92L232.969 55V55.32L233.129 55.496V55.544L233.193 55.56L233.257 55.656L233.321 55.576C233.3 55.576 233.326 55.5813 233.401 55.592C233.518 55.592 233.641 55.4853 233.769 55.272L233.961 55.224L234.009 55.144C234.041 55.0587 234.105 54.9947 234.201 54.952L234.313 54.968L234.377 54.904L234.393 54.824L234.441 54.76C234.548 54.6853 234.617 54.5733 234.649 54.424L234.825 54.232L234.857 54.088L234.969 53.832L235.273 53.72L235.705 53.864L235.849 54.328C235.849 54.3387 235.854 54.3493 235.865 54.36C235.865 54.3813 235.865 54.3973 235.865 54.408Z" fill="#E4F5FF"/>
</svg>
